# Blender v2.82 (sub 7) OBJ File: 'SHAPES.blend'
# www.blender.org
mtllib Circle.mtl
v 0.000000 0.000000 -0.152400
v -0.023841 0.000000 -0.150524
v -0.047094 0.000000 -0.144941
v -0.069188 0.000000 -0.135789
v -0.089578 0.000000 -0.123294
v -0.107763 0.000000 -0.107763
v -0.123294 0.000000 -0.089578
v -0.135789 0.000000 -0.069188
v -0.144941 0.000000 -0.047094
v -0.150524 0.000000 -0.023841
v -0.152400 0.000000 0.000000
v -0.150524 0.000000 0.023841
v -0.144941 0.000000 0.047094
v -0.135789 0.000000 0.069188
v -0.123294 0.000000 0.089579
v -0.107763 0.000000 0.107763
v -0.089578 0.000000 0.123294
v -0.069188 0.000000 0.135789
v -0.047094 0.000000 0.144941
v -0.023841 0.000000 0.150524
v 0.000000 0.000000 0.152400
v 0.023841 0.000000 0.150524
v 0.047094 0.000000 0.144941
v 0.069188 0.000000 0.135789
v 0.089579 0.000000 0.123294
v 0.107763 0.000000 0.107763
v 0.123294 0.000000 0.089578
v 0.135789 0.000000 0.069188
v 0.144941 0.000000 0.047094
v 0.150524 0.000000 0.023840
v 0.152400 0.000000 -0.000000
v 0.150524 0.000000 -0.023841
v 0.144941 0.000000 -0.047094
v 0.135789 0.000000 -0.069188
v 0.123294 0.000000 -0.089579
v 0.107763 0.000000 -0.107763
v 0.089578 0.000000 -0.123294
v 0.069188 0.000000 -0.135790
v 0.047094 0.000000 -0.144941
v 0.023840 0.000000 -0.150524
vt 0.000000 0.000000
vt 0.000000 0.000000
vt 0.000000 0.000000
vt 0.000000 0.000000
vt 0.000000 0.000000
vt 0.000000 0.000000
vt 0.000000 0.000000
vt 0.000000 0.000000
vt 0.000000 0.000000
vt 0.000000 0.000000
vt 0.000000 0.000000
vt 0.000000 0.000000
vt 0.000000 0.000000
vt 0.000000 0.000000
vt 0.000000 0.000000
vt 0.000000 0.000000
vt 0.000000 0.000000
vt 0.000000 0.000000
vt 0.000000 0.000000
vt 0.000000 0.000000
vt 0.000000 0.000000
vt 0.000000 0.000000
vt 0.000000 0.000000
vt 0.000000 0.000000
vt 0.000000 0.000000
vt 0.000000 0.000000
vt 0.000000 0.000000
vt 0.000000 0.000000
vt 0.000000 0.000000
vt 0.000000 0.000000
vt 0.000000 0.000000
vt 0.000000 0.000000
vt 0.000000 0.000000
vt 0.000000 0.000000
vt 0.000000 0.000000
vt 0.000000 0.000000
vt 0.000000 0.000000
vt 0.000000 0.000000
vt 0.000000 0.000000
vt 0.000000 0.000000
vn 0.0000 1.0000 0.0000
g Circle_Circle_Circle
usemtl Circle
s off
f 2/1/1 3/2/1 4/3/1 5/4/1 6/5/1 7/6/1 8/7/1 9/8/1 10/9/1 11/10/1 12/11/1 13/12/1 14/13/1 15/14/1 16/15/1 17/16/1 18/17/1 19/18/1 20/19/1 21/20/1 22/21/1 23/22/1 24/23/1 25/24/1 26/25/1 27/26/1 28/27/1 29/28/1 30/29/1 31/30/1 32/31/1 33/32/1 34/33/1 35/34/1 36/35/1 37/36/1 38/37/1 39/38/1 40/39/1 1/40/1
