# Blender v2.82 (sub 7) OBJ File: ''
# www.blender.org
mtllib Hexagon.mtl
o Hexagon
v 0.000000 0.000000 -0.152400
v -0.131982 0.000000 -0.076200
v -0.131982 0.000000 0.076200
v 0.000000 0.000000 0.152400
v 0.131982 0.000000 0.076200
v 0.131982 0.000000 -0.076200
vt 0.000000 0.000000
vt 0.000000 0.000000
vt 0.000000 0.000000
vt 0.000000 0.000000
vt 0.000000 0.000000
vt 0.000000 0.000000
vn 0.0000 1.0000 0.0000
usemtl Material.001
s off
f 3/1/1 5/2/1 1/3/1
f 1/3/1 2/4/1 3/1/1
f 3/1/1 4/5/1 5/2/1
f 5/2/1 6/6/1 1/3/1
