# Blender v2.82 (sub 7) OBJ File: ''
# www.blender.org
mtllib QuarterCircle.mtl
o QuarterCircle
v 0.139963 -0.000000 0.121062
v 0.136711 -0.000000 0.079726
v 0.127031 0.000000 0.039409
v 0.111163 0.000000 0.001102
v 0.089499 0.000000 -0.034252
v 0.062571 0.000000 -0.065780
v 0.031041 0.000000 -0.092708
v -0.004311 0.000000 -0.114373
v -0.042618 0.000000 -0.130240
v -0.082936 0.000000 -0.139919
v -0.124271 0.000000 -0.143172
v -0.124088 0.000000 0.121341
vt 0.000000 0.000000
vt 0.000000 0.000000
vt 0.000000 0.000000
vt 0.000000 0.000000
vt 0.000000 0.000000
vt 0.000000 0.000000
vt 0.000000 0.000000
vt 0.000000 0.000000
vt 0.000000 0.000000
vt 0.000000 0.000000
vt 0.000000 0.000000
vt 0.000000 0.000000
vn -0.0000 -1.0000 -0.0000
usemtl QuarterCircle
s off
f 11/1/1 10/2/1 9/3/1 8/4/1 7/5/1 6/6/1 5/7/1 4/8/1 3/9/1 2/10/1 1/11/1 12/12/1
